<svg width="13" height="14" viewBox="0 0 13 14" fill="none" xmlns="http://www.w3.org/2000/svg">
<path d="M11.4792 1.45979C11.895 1.8755 11.8949 2.54942 11.4792 2.96515L6.76566 7.67874C6.62492 7.81947 6.44939 7.9217 6.25743 7.97429L4.46618 8.46457L4.96406 6.67953C5.01706 6.48936 5.11793 6.31574 5.25753 6.17614L9.97388 1.45979C10.3896 1.04414 11.0635 1.04414 11.4792 1.45979Z" stroke="#979797"/>
<path d="M5.5 2.75122C4.10355 2.75122 3.40533 2.75122 2.84402 2.94763C1.83866 3.29942 1.0482 4.08988 0.696408 5.09524C0.5 5.65655 0.5 6.35477 0.5 7.75122C0.5 9.14767 0.5 9.8459 0.696408 10.4072C1.0482 11.4126 1.83866 12.203 2.84402 12.5548C3.40533 12.7512 4.10355 12.7512 5.5 12.7512C6.89645 12.7512 7.59467 12.7512 8.15598 12.5548C9.16134 12.203 9.9518 11.4126 10.3036 10.4072C10.5 9.8459 10.5 9.14767 10.5 7.75122" stroke="#979797"/>
</svg>
