<svg width="11" height="11" viewBox="0 0 11 11" fill="none" xmlns="http://www.w3.org/2000/svg">
<path d="M4 3.00635C3.06936 3.00635 2.60404 3.00635 2.22746 3.12871C1.46636 3.376 0.869653 3.97271 0.622359 4.73381C0.5 5.11039 0.5 5.57571 0.5 6.50635C0.5 7.43699 0.5 7.90231 0.622359 8.27889C0.869653 9.03999 1.46636 9.63669 2.22746 9.88399C2.60404 10.0063 3.06936 10.0063 4 10.0063C4.93064 10.0063 5.39596 10.0063 5.77254 9.88399C6.53364 9.63669 7.13035 9.03999 7.37764 8.27889C7.5 7.90231 7.5 7.43699 7.5 6.50635" stroke="#D9D9D9"/>
<path d="M9.9943 0.489797C9.98444 0.210263 9.75563 -0.0089197 9.48326 0.000239206L5.04464 0.149491C4.77226 0.158649 4.55945 0.392681 4.56932 0.672216C4.57919 0.95175 4.80799 1.17093 5.08037 1.16177L9.02581 1.02911L9.16874 5.07824C9.1786 5.35777 9.40741 5.57695 9.67978 5.56779C9.95216 5.55864 10.165 5.3246 10.1551 5.04507L9.9943 0.489797ZM4.5 6.00635L4.86136 6.35252L9.86249 0.85255L9.50112 0.506381L9.13976 0.160211L4.13864 5.66018L4.5 6.00635Z" fill="#D9D9D9"/>
</svg>
